<svg width="16" height="16" viewBox="0 0 16 16" fill="none" xmlns="http://www.w3.org/2000/svg">
<g clip-path="url(#clip0)">
<path d="M15.55 0L10.45 0.0053125C10.3307 0.0053125 10.2162 0.0527231 10.1318 0.137114C10.0474 0.221506 10 0.335965 10 0.455312V1.49625C9.99999 1.55612 10.0119 1.61538 10.0351 1.67058C10.0583 1.72577 10.0922 1.77579 10.135 1.8177C10.1777 1.8596 10.2284 1.89256 10.2841 1.91463C10.3397 1.93671 10.3992 1.94746 10.4591 1.94625L12.76 1.86125L12.8244 1.92562L4.11 10.6403C4.07504 10.6752 4.0473 10.7165 4.02837 10.7621C4.00945 10.8077 3.9997 10.8566 3.9997 10.9059C3.9997 10.9553 4.00945 11.0042 4.02837 11.0497C4.0473 11.0953 4.07504 11.1367 4.11 11.1716L4.82875 11.8903C4.86359 11.9253 4.90499 11.953 4.95057 11.9719C4.99615 11.9909 5.04502 12.0006 5.09438 12.0006C5.14373 12.0006 5.1926 11.9909 5.23818 11.9719C5.28376 11.953 5.32516 11.9253 5.36 11.8903L14.0744 3.17563L14.1388 3.24L14.0538 5.54094C14.0525 5.60079 14.0633 5.66028 14.0854 5.71593C14.1074 5.77158 14.1404 5.82226 14.1823 5.86501C14.2242 5.90776 14.2742 5.94172 14.3294 5.9649C14.3846 5.98808 14.4439 6.00001 14.5037 6H15.5447C15.664 6 15.7785 5.95259 15.8629 5.8682C15.9473 5.78381 15.9947 5.66935 15.9947 5.55L16 0.45C16 0.330653 15.9526 0.216193 15.8682 0.131802C15.7838 0.0474106 15.6693 0 15.55 0V0ZM13.5 9H13C12.8674 9 12.7402 9.05268 12.6464 9.14645C12.5527 9.24021 12.5 9.36739 12.5 9.5V14.3125C12.5 14.3622 12.4802 14.4099 12.4451 14.4451C12.4099 14.4802 12.3622 14.5 12.3125 14.5H1.6875C1.63777 14.5 1.59008 14.4802 1.55492 14.4451C1.51975 14.4099 1.5 14.3622 1.5 14.3125V3.6875C1.5 3.63777 1.51975 3.59008 1.55492 3.55492C1.59008 3.51975 1.63777 3.5 1.6875 3.5H6.5C6.63261 3.5 6.75979 3.44732 6.85355 3.35355C6.94732 3.25979 7 3.13261 7 3V2.5C7 2.36739 6.94732 2.24021 6.85355 2.14645C6.75979 2.05268 6.63261 2 6.5 2H1.5C1.10218 2 0.720644 2.15804 0.43934 2.43934C0.158035 2.72064 0 3.10218 0 3.5L0 14.5C0 14.8978 0.158035 15.2794 0.43934 15.5607C0.720644 15.842 1.10218 16 1.5 16H12.5C12.8978 16 13.2794 15.842 13.5607 15.5607C13.842 15.2794 14 14.8978 14 14.5V9.5C14 9.36739 13.9473 9.24021 13.8536 9.14645C13.7598 9.05268 13.6326 9 13.5 9Z" fill="#4D9AE9"/>
</g>
<defs>
<clipPath id="clip0">
<rect width="16" height="16" fill="white"/>
</clipPath>
</defs>
</svg>
